<?xml version="1.0" encoding="UTF-8"?>
<svg id="Layer_1" width="21" height="15" data-name="Layer 1" xmlns="http://www.w3.org/2000/svg" viewBox="0 0 21 15">
  <defs>
    <style>
      .cls-1 {
        fill=#ffffff;
        stroke-width: 0px;
      }
    </style>
  </defs>
  <path class="cls-1" d="m19,2H1c-.55,0-1-.45-1-1S.45,0,1,0h18c.55,0,1,.45,1,1s-.45,1-1,1Z" fill="#ffffff"/>
  <path class="cls-1" d="m19,8H1c-.55,0-1-.45-1-1s.45-1,1-1h18c.55,0,1,.45,1,1s-.45,1-1,1Z" fill="#ffffff"/>
  <path class="cls-1" d="m19,14H1c-.55,0-1-.45-1-1s.45-1,1-1h18c.55,0,1,.45,1,1s-.45,1-1,1Z" fill="#ffffff"/>
</svg>
